<?xml version="1.0" encoding="utf-8"?>
<!-- Generator: Adobe Illustrator 25.3.1, SVG Export Plug-In . SVG Version: 6.00 Build 0)  -->
<svg version="1.1" id="layer" xmlns="http://www.w3.org/2000/svg" xmlns:xlink="http://www.w3.org/1999/xlink" x="0px" y="0px"
	 viewBox="0 0 600 133.2" style="enable-background:new 0 0 600 133.2;" xml:space="preserve">
<style type="text/css">
	.st0{fill:#0099D8;stroke:#FFFFFF;stroke-miterlimit:10;}
	.st1{fill:#FFFFFF;}
</style>
<path class="st0" d="M0.2,86.6l19.7-42.7c0.5-1,1.1-1.6,2.3-1.6h0.1c1.2,0,1.8,0.7,2.3,1.6l19.6,42.5c0.2,0.4,0.3,0.7,0.3,1.1
	c0,0.9-0.7,1.6-1.6,1.6c-0.8,0-1.4-0.6-1.7-1.3l-5.4-11.9H8.6L3.2,87.8c-0.3,0.8-0.9,1.3-1.6,1.3c-0.9,0-1.6-0.7-1.6-1.5
	C-0.1,87.4,0,87,0.2,86.6 M34.3,72.9L22.2,46.2L10,72.9H34.3z M54.4,87.5c0,1,0.7,1.6,1.6,1.6s1.6-0.7,1.6-1.6V75.1
	c0-10.8,6.4-16.1,13.5-16.8c1.1-0.1,1.7-0.9,1.7-1.8c0-1-0.7-1.8-1.7-1.8c-4.7,0-10.6,3.6-13.5,10.1v-8.2c0-1-0.7-1.6-1.6-1.6
	s-1.6,0.7-1.6,1.6V87.5z M110.3,87.5c0,1-0.7,1.6-1.6,1.6s-1.6-0.7-1.6-1.6v-6.1c-2.9,4.4-7.2,8.3-13.8,8.3
	c-8.1,0-16.3-6.5-16.3-17.4v-0.1c0-10.9,8.2-17.6,16.3-17.6c6.7,0,11.1,3.8,13.8,8V42.3c0-1,0.7-1.6,1.6-1.6s1.6,0.7,1.6,1.6V87.5z
	 M80.4,71.9L80.4,71.9c0,8.9,6.1,14.6,13.2,14.6c7,0,13.7-5.9,13.7-14.4V72c0-8.6-6.7-14.4-13.7-14.4C86.3,57.6,80.4,62.9,80.4,71.9
	 M119.8,79.1L119.8,79.1c0-7.1,6-11,14.7-11c4.7,0,7.9,0.6,11.1,1.5v-1.5c0-6.8-4.1-10.3-11.1-10.3c-3.7,0-6.8,0.9-9.5,2.2
	c-0.3,0.1-0.5,0.2-0.7,0.2c-0.8,0-1.5-0.7-1.5-1.5s0.6-1.3,0.9-1.4c3.4-1.5,6.8-2.5,11.1-2.5c4.5,0,8.2,1.2,10.6,3.7
	c2.2,2.2,3.4,5.3,3.4,9.5v19.6c0,1-0.7,1.6-1.6,1.6c-0.9,0-1.6-0.7-1.6-1.6v-4.2c-2.3,3.2-6.5,6.4-12.8,6.4
	C126.5,89.6,119.8,86.1,119.8,79.1 M145.7,76.3v-3.8c-2.8-0.7-6.6-1.5-11.4-1.5c-7.1-0.1-11.1,3.1-11.1,7.8v0.1
	c0,4.9,4.6,7.7,9.7,7.7C139.8,86.6,145.7,82.4,145.7,76.3 M160.4,94.9c-0.5-0.3-0.7-0.9-0.7-1.4c0-0.7,0.8-1.5,1.6-1.5
	c0.4,0,0.7,0.1,0.9,0.3c3.8,2.8,8.2,4.3,12.9,4.3c7.7,0,13.2-4.4,13.2-13v-4.9c-2.9,4.1-7.4,7.8-14,7.8c-8.1,0-16.1-6.2-16.1-15.8
	v-0.1c0-9.7,8-15.9,16.1-15.9c6.7,0,11.3,3.6,14,7.5v-5.3c0-0.9,0.7-1.6,1.6-1.6c0.9,0,1.6,0.7,1.6,1.6v27c0,4.9-1.6,8.7-4.3,11.4
	c-2.9,2.9-7.2,4.5-12.2,4.5C169.8,99.5,164.8,97.9,160.4,94.9 M188.6,70.5L188.6,70.5c0-7.9-6.9-12.9-13.9-12.9s-13,4.9-13,12.7v0.1
	c0,7.6,6.1,12.8,13,12.8C181.6,83.3,188.6,78.1,188.6,70.5 M203.8,87.5c0,1,0.7,1.6,1.6,1.6c0.9,0,1.6-0.7,1.6-1.6v-18
	c0-7,5.1-12,11.7-12c6.8,0,10.7,4.5,10.7,11.5v18.6c0,1,0.7,1.6,1.6,1.6c0.9,0,1.6-0.7,1.6-1.6V68.4c0-8-4.9-13.8-13.4-13.8
	c-6.1,0-9.9,3.1-12.1,7V42.2c0-0.9-0.7-1.6-1.6-1.6c-0.9,0-1.6,0.7-1.6,1.6L203.8,87.5L203.8,87.5z"/>
<path class="st1" d="M242.9,65.9L242.9,65.9c0-12.5,9-23.9,22.8-23.9c6.9,0,11.5,1.9,15.7,5.1c0.4,0.3,0.7,0.8,0.7,1.4
	c0,0.9-0.8,1.7-1.7,1.7c-0.3,0-0.7-0.1-1.1-0.5c-3.6-2.8-7.4-4.7-13.8-4.7c-11.2,0-19,9.5-19,20.6v0.1c0,11.9,7.4,20.8,19.8,20.8
	c5.9,0,11.3-2.4,14.7-5.3V68h-14.4c-0.9,0-1.6-0.7-1.6-1.6s0.7-1.6,1.6-1.6h15.9c0.9,0,1.7,0.8,1.7,1.7v15.1c0,0.7-0.5,1.4-1.2,2
	c-4.3,3.4-10.1,5.9-16.9,5.9C251.5,89.6,242.9,78.9,242.9,65.9 M295.9,87.5c0,1,0.7,1.6,1.6,1.6s1.6-0.7,1.6-1.6V75.1
	c0-10.8,6.4-16.1,13.5-16.8c1.1-0.1,1.7-0.9,1.7-1.8c0-1-0.7-1.8-1.7-1.8c-4.7,0-10.6,3.6-13.5,10.1v-8.2c0-1-0.7-1.6-1.6-1.6
	s-1.6,0.7-1.6,1.6V87.5z M318.3,72.2c0,9.4,7.2,17.4,17.2,17.4s17.3-8.2,17.3-17.6v-0.1c0-9.4-7.2-17.4-17.2-17.4
	S318.3,62.7,318.3,72.2L318.3,72.2 M349.3,72.2c0,7.9-5.7,14.4-13.7,14.4c-7.8,0-13.8-6.5-13.8-14.6v-0.1c0-7.9,5.7-14.4,13.7-14.4
	c7.8,0,13.8,6.5,13.8,14.5V72.2 M390.8,56.7c0-1-0.7-1.6-1.6-1.6s-1.6,0.7-1.6,1.6v18c0,7-5.1,12-11.7,12c-6.8,0-10.7-4.5-10.7-11.5
	V56.6c0-1-0.7-1.6-1.6-1.6s-1.6,0.7-1.6,1.6v19.2c0,8,4.9,13.8,13.4,13.8c6.1,0,9.9-3.1,12.1-7v4.9c0,1,0.7,1.6,1.6,1.6
	s1.6-0.7,1.6-1.6V56.7H390.8z M403.1,98c0,1,0.7,1.6,1.6,1.6s1.6-0.7,1.6-1.6V81.6c2.8,4.2,7.1,8,13.8,8c8.1,0,16.3-6.7,16.3-17.6
	v-0.1c0-10.9-8.2-17.4-16.3-17.4c-6.7,0-10.9,3.9-13.8,8.3v-6.1c0-1-0.7-1.6-1.6-1.6s-1.6,0.7-1.6,1.6V98z M433,72.2
	c0,9-5.9,14.4-13.2,14.4c-7,0-13.7-5.8-13.7-14.4v-0.1c0-8.6,6.7-14.4,13.7-14.4S433,63.4,433,72.2L433,72.2"/>
<g>
	<path class="st1" d="M469.3,81.6c0.8-1,2.6-3,5.2-5.8c-0.5-3-0.7-6.1-0.7-9.2c0-32.9,26.7-59.5,59.6-59.6c1,0,2.1,0,3.1,0.1
		c1.5-1.8,2.2-2.7,3.1-4.2c0.6-0.9,1.6-1.7,2.6-2.3c-2.9-0.4-5.8-0.6-8.8-0.6c-36.8,0.1-66.6,29.9-66.6,66.6
		c0,5.5,0.7,10.8,1.9,15.9c0-0.1,0.1-0.2,0.2-0.3C469,82,469.1,81.8,469.3,81.6z"/>
	<path class="st1" d="M550.5,2.2c0.7,1.5,0.7,3.6-0.4,7.2c15.2,4.4,27.9,14.8,35.5,28.4c0.4,0,0.8-0.1,1.1-0.1
		c2.5-0.2,3.4,1,3.8,1.8c0.8,1.6,0.1,3.7-1.5,5.5c2.6,6.7,4,14,4,21.6c0,1.4-0.1,2.8-0.2,4.2c1.7,0,5.1,0.2,5.2,1.6
		c0,1-1,1.5-4.3,1.6c-0.3,0-0.8,0.1-1.2,0.2c-3.1,24.4-20.9,44.2-44.3,50.2c-0.6,1.5-0.9,2.5-1.1,3.2c-0.2,1-0.2,2.1,0.1,3.2
		c0.1,0.3,0,0.5-0.1,0.7c-0.2,0.2-0.4,0.4-0.6,0.4c-1,0.2-3.2,0.6-4.9,0.8h-0.1c-0.3,0-0.5-0.1-0.7-0.3c-0.2-0.2-0.3-0.5-0.2-0.8
		c0.4-1.5,1.1-3.5,2-6c-3,0.5-6,0.7-9.2,0.7c-25.2,0-46.7-15.6-55.4-37.7c-0.2,0.2-0.4,0.4-0.7,0.5c-1.6,1.2-3.5,2-5.2,2.1
		c-0.3,0.1-0.6-0.1-0.7-0.2c9.7,24.8,33.8,42.3,62,42.3c36.8,0,66.6-29.8,66.6-66.6C600,35.7,579,9.8,550.5,2.2z"/>
	<path class="st1" d="M550.5,2.2c-0.1-0.2-0.4-0.5-0.8-0.6c-2.1-0.5-4.3-1-6.5-1.3c-0.2,0-0.3,0-0.5,0c-0.2,0.1-0.3,0.2-0.5,0.3
		C545,1,547.8,1.5,550.5,2.2C550.5,2.2,550.5,2.2,550.5,2.2z"/>
	<path class="st1" d="M468.7,82.9c0.7,2.7,1.5,5.2,2.5,7.7c0,0.1,0.1,0.2,0.2,0.3c-1.1-2.7-1.9-5.5-2.6-8.3
		C468.7,82.7,468.7,82.8,468.7,82.9z"/>
	<path class="st1" d="M536.3,7.3c-0.8,0.9-1.8,2.1-3.1,3.7c-1.3,1.6-3,3.6-5.3,6.3c-5.9,7.1-22.2,24.7-36.5,40.2l-4.8,5.1
		c-10,2.4-12.9,3.6-12.5,5.5c0.3,1.4,2.1,1.4,4.3,1.5c0.5,0,1.1,0,1.7,0.1c-1.9,2-3.6,3.9-5.1,5.6c-0.2,0.2-0.3,0.3-0.5,0.5
		c0.7,4.4,1.9,8.6,3.4,12.6c0.5-0.4,0.9-0.8,1.1-1.2c1.9-2.1,1.3-3.7,0.8-4.8c-0.3-0.8-0.5-1.2,0-1.8c0.9-1.4,6.4-6.3,14.6-13.1
		c3.9-1.3,8.5-2.7,12.7-3.7c6.1-1.4,15.7-3.3,24.5-4.9c-0.7,3.4-1.3,7-2,10.8c-16,14.3-26.3,25.2-24.2,32.3c1.1,3.6,5.3,6,13,7.1
		c5.6,0.8,21.5-3.9,32.7-8.7c-1.5,4.2-5.4,15.4-8.2,23.7c-0.2,0.5-0.3,0.9-0.4,1.3c1.9-0.3,3.8-0.7,5.7-1.2c0.1-0.1,0.1-0.3,0.2-0.4
		c3.8-10.4,14.2-34.4,21.4-43.1c1.9-0.7,15-5.1,22.5-6.6c0.1,0,0.1,0,0.2,0c0.1-1.1,0.3-2.2,0.3-3.4c-0.2,0-0.4,0-0.5,0
		c-0.3,0-0.6,0-0.8,0c-2.9,0.2-36.3,5.4-44.7,7.9c-2.6,0.4-3.7,0.9-4,1.9s0.6,1.9,1.3,2.6c0.1,0.1,0.3,0.3,0.4,0.4
		c0.2,0.2,0.5,0.5,0.7,0.9c1,1.3,2.2,2.8,4,3c1.1,0.1,2.1-0.4,3.1-1.3c2.1-2,7.1-2.8,9.9-3.2c-2.8,3.1-9.7,10.4-13.1,12.4
		c-2.4,1.4-8.9,4.3-15.5,6.2c-7.8,2.3-13.1,2.4-15,0.3c-1.1-1.2-1.5-2.8-1.4-4.8c0.3-5.2,4.6-12.2,11.1-18.3c-0.5,3.2-0.8,5.7-1,7.3
		c-0.5,4.7,0,7.6,1.5,9.2c0.9,1,2.2,1.5,3.9,1.5c1.3,0,2.4-0.6,3.2-1.9c1.7-2.7,1.5-7.9,0.6-10.2l-0.1-0.2c-0.9-2-1.9-4.2-1-11.6
		l2.3-1.7c10.6-7.8,32.5-24.1,35.1-23.2c0.3,0.1,0.5,0.3,0.6,0.6c0.4,1.2-1.1,3.9-2.1,5.2c-0.2,0.3-0.2,0.8,0.1,1.1s0.7,0.4,1.1,0.1
		c1-0.6,9.7-6.1,14-8.2c0.9-0.4,1.7-1,2.4-1.7c0,0,0,0,0.1-0.1c-1-2.5-2.1-4.9-3.4-7.2c-0.1,0-0.1,0-0.2,0c-5.5,0.7-19.2,4-38.4,18
		c-0.1-0.7-0.8-1-3.8-1.3c-1.3-0.1-2.9-0.3-4.3-0.3l11-44.1c0.1-0.2,0.1-0.5,0.2-0.7c-4.4-1.3-8.9-2.1-13.6-2.3
		C536.4,7.2,536.4,7.2,536.3,7.3z M544.7,57.3c0.1,0,0.3,0,0.4,0c-2.7,2-5.4,4.2-8.2,6.6c0.3-1.7,0.7-3.6,1.1-5.6
		C541.1,57.7,543.4,57.4,544.7,57.3z M534,47.6c-0.5,1.8-1.1,4.2-1.7,7.5c-2.1,0.3-8.8,1.5-18.6,3.5c-6.9,1.4-12.4,2.2-16.8,2.8
		l-0.4,0.1c0.1-0.1,0.2-0.3,0.4-0.5c0.7-0.8,2.4-2.5,8.4-9.8c8.5-10.5,28.3-28.9,33.6-33.5C538.4,22.6,536.5,37.5,534,47.6z"/>
</g>
</svg>
