<?xml version="1.0" encoding="utf-8"?>
<!-- Generator: Adobe Illustrator 25.3.1, SVG Export Plug-In . SVG Version: 6.00 Build 0)  -->
<svg version="1.1" id="Layer_1" xmlns="http://www.w3.org/2000/svg" xmlns:xlink="http://www.w3.org/1999/xlink" x="0px" y="0px"
	 viewBox="0 0 130.9 60" style="enable-background:new 0 0 130.9 60;" xml:space="preserve">
<style type="text/css">
	.st0{display:none;}
	.st1{display:inline;}
	.st2{fill-rule:evenodd;clip-rule:evenodd;fill:#FFFFFF;}
	.st3{fill:#34679C;}
	.st4{fill:#FEFEFE;}
	.st5{fill:#FDFDFD;}
</style>
<g id="Layer_1_1_" class="st0">
	<g class="st1">
		<path class="st2" d="M83.6,22.4c-2,0-3.5,0.4-5,1.3c0-4.5,0-8.5,0.1-9.9l-9.4,1.7v0.8l1,0.1c1.3,0.3,1.7,1,2,2.7
			c0.3,3.4,0.1,21.3,0,24.2c2.5,0.6,5.2,1,7.8,1c7.4,0,11.9-4.6,11.9-11.9C92,26.6,88.3,22.4,83.6,22.4L83.6,22.4z M80.3,42.7
			c-0.6,0-1.3,0-1.7-0.1c-0.1-2-0.3-10.2-0.1-17.5c0.8-0.3,1.4-0.4,2.1-0.4c3.1,0,4.8,3.6,4.8,8.1C85.4,38.3,83.3,42.7,80.3,42.7
			L80.3,42.7z"/>
		<path class="st2" d="M34.1,14.3H9.4v1.3l1.4,0.1c1.8,0.3,2.5,1.4,2.8,4.1c0.4,5,0.3,14.1,0,18.5c-0.3,2.7-1,3.9-2.8,4.1l-1.4,0.3
			v1.1h15.8v-1.1l-1.7-0.3c-1.8-0.1-2.5-1.4-2.8-4.1c-0.1-1.8-0.3-4.8-0.3-8.4l3.4,0.1c2.1,0,3.1,1.7,3.5,4.1h1.3v-9.9h-1.3
			c-0.4,2.4-1.4,4.1-3.5,4.1l-3.4,0.1c0-4.8,0.1-9.2,0.3-11.9h4.9c3.8,0,5.7,2.4,7.1,6.6l1.4-0.4L34.1,14.3L34.1,14.3z"/>
		<path class="st2" d="M42,22.1c7,0,10.5,4.8,10.5,11c0,6-3.9,11-10.9,11s-10.5-4.8-10.5-11C31.1,27.1,35,22.1,42,22.1L42,22.1z
			 M41.6,23.5c-3.1,0-3.9,4.2-3.9,9.6c0,5.3,1.4,9.6,4.2,9.6c3.2,0,4.1-4.2,4.1-9.6C45.9,27.8,44.5,23.5,41.6,23.5L41.6,23.5z"/>
		<path class="st2" d="M93.8,33.3c0-5.7,3.6-11.2,10.8-11.2c5.9,0,8.7,4.3,8.7,10.1h-13c-0.1,5.2,2.4,9,7.4,9c2.2,0,3.4-0.6,4.8-1.5
			l0.6,0.7c-1.4,2-4.5,3.9-8.4,3.9C98.2,44.2,93.8,39.7,93.8,33.3L93.8,33.3z M100.2,30.6l6.6-0.1c0-2.8-0.4-7-2.8-7
			C101.6,23.5,100.3,27.4,100.2,30.6L100.2,30.6z"/>
		<path class="st2" d="M129.8,23.2c-1.7-0.7-3.9-1.1-6.4-1.1c-5.2,0-8.4,3.1-8.4,6.7s2.4,5.2,5.7,6.3c3.5,1.3,4.5,2.2,4.5,3.9
			s-1.3,3.2-3.5,3.2c-2.7,0-4.6-1.5-6.2-5.7l-1,0.3l0.1,6.2c1.7,0.7,4.8,1.3,7.4,1.3c5.5,0,8.9-2.8,8.9-7.1c0-2.9-1.5-4.6-5.2-6
			c-3.9-1.5-5.3-2.5-5.3-4.3s1.3-3.1,2.9-3.1c2.5,0,4.2,1.5,5.5,5.3l1-0.3V23.2L129.8,23.2z"/>
		<path class="st2" d="M70.7,22.7c-2.4-1.4-6.6-0.7-8.8,4.3l0.1-4.9l-9.4,1.8v0.8l1,0.1c1.3,0.1,1.8,0.8,2,2.7
			c0.3,3.4,0.1,9.2,0,12.2c-0.1,1.7-0.7,2.5-2,2.7l-1,0.1v1.1h13v-1.1l-1.7-0.1c-1.4-0.1-1.8-1-2-2.7c-0.3-2.7-0.3-8-0.1-11.3
			c0.7-1,3.8-1.8,6.6,0L70.7,22.7L70.7,22.7z"/>
	</g>
</g>
<g>
	<path d="M0.1,0c40.2,0,80.4,0,120.6,0c0.1,0,0.3-0.1,0.4,0.1c-0.1,0.3-0.3,0.6-0.6,0.8c-19.5,19.5-39,39-58.5,58.5
		c-0.3,0.3-0.6,0.6-1,0.5c-20.1,0-40.2,0-60.3,0c-0.2,0-0.4,0-0.6,0c-0.1-0.2,0-0.3,0-0.5c0-19.6,0-39.2,0-58.9C0.1,0.4,0,0.2,0.1,0
		z"/>
	<path d="M78.3,60c-0.7-0.3-1.4-0.6-1.9-1.1c-1.1-1.1-1.5-2.8-0.8-4.2c0.6-1.5,2.2-2.4,3.8-2.4c2,0.1,3.6,1.5,3.9,3.3
		c0.3,2-0.9,3.7-2.9,4.3c-0.1,0-0.1,0.1-0.2,0.1C79.5,60,78.9,60,78.3,60z"/>
	<path class="st3" d="M61.3,59.9C61.3,59.9,61.3,60,61.3,59.9C40.9,60,20.5,60,0.1,60v-0.1c7.7,0,15.4,0,23.1,0
		C35.9,59.9,48.6,59.9,61.3,59.9z"/>
	<path class="st4" d="M0.1,59.9C0.1,59.9,0.1,60,0.1,59.9C0.1,60,0,60,0.1,59.9C0,59.9,0,59.7,0,59.6C0,39.9,0,20.2,0,0.5
		c0-0.1-0.1-0.3,0.1-0.4c0,19.8,0,39.5,0,59.3C0.1,59.5,0.1,59.7,0.1,59.9z"/>
	<path class="st4" d="M79.2,52.9c1.7,0,3.1,1.5,3.1,3.2c0,1.8-1.4,3.3-3.1,3.3s-3.1-1.5-3.1-3.3C76.2,54.4,77.5,52.9,79.2,52.9z"/>
	<path d="M80,56.4c0.4,0.6,0.8,1.3,1.1,1.9c-0.4,0.1-0.7,0.1-0.9-0.4c-0.2-0.4-0.5-0.8-0.8-1.3c-0.1-0.2-0.2-0.3-0.4-0.3
		c-0.3,0-0.5,0.1-0.5,0.5s0,0.7,0,1.1c0,0.3-0.1,0.4-0.4,0.4c-0.3,0.1-0.3-0.1-0.3-0.3c0-1.2,0-2.5,0-3.7c0-0.3,0.1-0.4,0.3-0.3
		c0.6,0,1.1,0,1.7,0c0.9,0.1,1.5,0.7,1.3,1.5C81,56,80.5,56.3,80,56.4z"/>
	<path class="st5" d="M78.5,55.2c0-0.1,0-0.2,0-0.3c0-0.3,0.1-0.4,0.4-0.4c0.4,0,0.7,0,1.1,0.1c0.3,0.1,0.5,0.3,0.5,0.6
		s-0.2,0.5-0.5,0.6c-0.4,0.1-0.7,0.1-1.1,0.1c-0.2,0-0.3-0.1-0.3-0.3C78.5,55.5,78.5,55.3,78.5,55.2z"/>
	<path class="st4" d="M90.7,21.1c-0.5-4.7-2.8-7.9-7.3-9.5c-2.8-1-5.8-1.3-8.7-1.3c-4,0-8,0-12,0c-0.5,0-0.6,0.1-0.6,0.6
		c0,9,0,18,0,27.1c0,0.2,0,0.3,0,0.5c-0.1-0.2-0.2-0.3-0.3-0.5c-3.3-9-6.6-18.1-10-27.1c-0.1-0.4-0.3-0.5-0.7-0.5
		c-3.1,0-6.1,0-9.2,0c-0.4,0-0.6,0.1-0.7,0.5c-2.9,7.6-5.7,15.1-8.6,22.7c-0.1,0.1-0.1,0.3-0.2,0.4c-0.6-3-2.4-5-4.9-6.5
		c-1.5-0.9-3-1.5-4.6-2.1c-1.9-0.7-3.9-1.2-5.7-2.1c-0.9-0.4-1.9-0.9-2.6-1.7c-0.8-0.8-0.8-1.8,0-2.6c0.4-0.4,0.9-0.7,1.5-0.9
		c1.7-0.5,3.4-0.3,5.2-0.1c2.2,0.3,4.3,1.1,6.4,2c0.3,0.2,0.4,0.1,0.6-0.2c1.3-2.2,2.5-4.3,3.8-6.5c0.2-0.3,0.2-0.4-0.2-0.6
		c-3.3-1.5-6.7-2.4-10.2-2.8c-3.3-0.4-6.5-0.2-9.7,0.9c-2.3,0.8-4.3,2-5.8,4C2.7,19,3.4,25,6.9,28.3c1.5,1.4,3.4,2.3,5.2,3.1
		c2,0.9,4.2,1.4,6.3,2.2c1,0.3,1.9,0.7,2.7,1.3c1.2,0.9,1.3,2.4,0.3,3.5c-0.5,0.5-1.1,0.9-1.8,1c-1.7,0.4-3.5,0.4-5.3,0.1
		C12,39.2,9.9,38.2,8,37.1C7.8,37,7.6,37,7.5,37.4c-1.1,2.2-2.2,4.3-3.4,6.5c-0.2,0.4-0.1,0.5,0.2,0.7c4.7,2.5,9.6,3.6,14.9,3.3
		c3.3-0.2,6.4-1.2,9.1-3.3c0.1-0.1,0.2-0.2,0.3-0.2h0.1c-0.4,1-0.7,1.9-1.1,3c3.6,0,7.1,0,10.6,0c0.3,0,0.3-0.2,0.4-0.4
		c0.5-1.6,1-3.2,1.4-4.7c0.1-0.3,0.2-0.4,0.5-0.3c3.9,1.2,7.8,1.2,11.8,0c0.3-0.1,0.4,0,0.5,0.3c0.5,1.6,1.1,3.1,1.6,4.6
		c0.1,0.3,0.3,0.5,0.6,0.5c5.5,0,11.1,0,16.6,0c0.4,0,0.5-0.1,0.5-0.5c0-3.5,0-7,0-10.5c0-0.4,0.1-0.5,0.5-0.5c1.4,0,2.8,0,4.2,0
		c2,0,3.9-0.3,5.8-0.9c3.5-1.2,6.1-3.4,7.4-6.9C90.9,25.7,91,23.4,90.7,21.1z M49.9,34c-2.3,0.7-4.5,0.7-6.8,0
		c-0.2-0.1-0.4-0.1-0.3-0.4c1.2-3.8,2.4-7.6,3.6-11.5c0,0,0,0,0.1-0.1c0.4,1.2,0.7,2.3,1.1,3.4c0.8,2.7,1.7,5.4,2.6,8
		C50.3,33.7,50.3,33.8,49.9,34z M77.2,27.4c-1.6,0.3-3.2,0.2-4.8,0.2c-0.3,0-0.2-0.2-0.2-0.4c0-1.5,0-3,0-4.4c0-1.5,0-2.9,0-4.4
		c0-0.2,0-0.4,0.3-0.4c1.6,0,3.2-0.1,4.8,0.2c0.6,0.1,1.2,0.3,1.7,0.6c1.6,0.9,2.3,2.3,2.2,4.1C81.1,25.4,79.8,26.8,77.2,27.4z"/>
</g>
</svg>
