<?xml version="1.0" encoding="utf-8"?>
<!-- Generator: Adobe Illustrator 25.3.1, SVG Export Plug-In . SVG Version: 6.00 Build 0)  -->
<svg version="1.1" id="Layer_1" xmlns="http://www.w3.org/2000/svg" xmlns:xlink="http://www.w3.org/1999/xlink" x="0px" y="0px"
	 viewBox="0 0 1280 640" style="enable-background:new 0 0 1280 640;" xml:space="preserve">
<style type="text/css">
	.st0{fill:#FFFFFF;}
</style>
<g transform="translate(0.000000,640.000000) scale(0.100000,-0.100000)">
	<path class="st0" d="M0,3920v-650h650h650v650v650H650H0V3920z"/>
	<path class="st0" d="M1437,4563c-4-3-7-296-7-650v-643h650h650v650v650h-643C1733,4570,1440,4567,1437,4563z"/>
	<path class="st0" d="M11870,4130c-105-23-216-101-263-187c-41-76-57-154-57-275v-107l-97-3l-98-3l-3-112l-3-113h101h100v-475v-475
		h140h140v475v475h205h205v-302c1-361,8-429,52-518c37-72,95-120,171-141c64-17,203-14,275,6l62,18v112v112l-57-19
		c-92-31-164-12-200,55c-16,28-18,69-21,355l-3,322h140h141v115v115h-140h-140v171v171l-27-7c-16-3-79-22-140-41l-113-35v-132v-132
		l-206,3l-206,3l3,117c4,128,17,165,71,205c37,27,123,34,182,14l46-16v119c0,101-2,119-17,124C12083,4136,11916,4139,11870,4130z"/>
	<path class="st0" d="M5644,4031c-52-32-77-76-77-137c0-98,74-161,181-152c91,8,147,66,147,153c0,60-20,95-75,133
		C5777,4057,5689,4059,5644,4031z"/>
	<path class="st0" d="M3550,3200v-820h135h135l-2,630c-2,347,0,630,3,630s119-284,259-630l254-631l100,3l100,3l247,623
		c136,343,250,626,253,629c3,4,6-278,6-625v-632h140h140v820v820h-193h-193l-229-562c-126-310-238-583-248-607l-20-45l-87,220
		c-48,120-156,393-240,607l-153,387h-204h-203V3200z"/>
	<path class="st0" d="M6520,3565c-203-46-362-191-430-395c-31-90-39-287-16-384c36-151,145-297,271-363c156-81,389-89,562-21l58,23
		l5,128c3,70,4,127,3,127s-31-16-67-35c-167-93-354-77-463,38c-82,86-114,210-93,356c20,139,100,247,216,290c109,41,264,22,364-46
		c19-12,37-23,40-23s4,60,2,134l-3,134l-67,22C6815,3579,6618,3587,6520,3565z"/>
	<path class="st0" d="M7710,3569c-98-14-175-71-224-166l-25-48l-1,103v103l-137-3l-138-3l-3-587l-2-588h139h140l3,363l3,362l28,60
		c44,93,95,140,171,154c51,9,134-2,178-25l28-15v135c0,97-4,137-12,143C7837,3569,7758,3576,7710,3569z"/>
	<path class="st0" d="M8331,3565c-217-49-371-201-426-420c-23-91-24-274-1-369c47-199,197-350,398-403c86-22,261-22,353,2
		c179,45,324,171,386,333c36,99,52,206,45,317c-10,181-58,298-160,401c-64,63-110,92-206,126C8646,3579,8424,3586,8331,3565z
		 M8625,3326c67-30,127-100,151-173c15-46,19-87,19-193c-1-117-4-143-24-193c-29-74-71-121-135-154c-44-23-64-26-141-26
		c-99,0-153,17-213,67c-94,81-137,274-97,444c28,116,80,186,170,228C8426,3360,8554,3360,8625,3326z"/>
	<path class="st0" d="M9513,3565c-118-33-223-116-264-208c-33-75-33-211,1-282c41-84,87-120,264-205c89-43,170-88,180-99
		c26-29,33-104,12-136c-57-87-269-78-428,19l-58,35v-135v-134l36-15c111-46,325-61,442-31c129,33,224,103,272,201
		c20,42,24,65,24,145c0,78-3,102-21,136c-50,95-114,143-294,224c-132,58-168,89-176,149c-19,137,188,177,390,75l48-25l-3,128l-3,127
		l-60,19C9793,3579,9586,3586,9513,3565z"/>
	<path class="st0" d="M10555,3561c-141-35-264-120-336-232c-104-163-127-429-54-626c90-241,345-379,634-343c165,20,255,61,356,164
		c122,123,169,250,169,456c0,201-47,333-157,444c-74,73-138,109-243,136C10825,3586,10655,3586,10555,3561z M10876,3323
		c56-30,108-90,135-159c19-50,23-78,23-189c1-205-41-301-158-360c-53-26-70-29-145-29c-108,1-175,27-231,91c-65,75-84,137-85,283
		c0,200,45,298,167,360c60,30,67,31,158,28C10812,3345,10845,3339,10876,3323z"/>
	<path class="st0" d="M5590,2970v-590h140h140l-2,588l-3,587l-137,3l-138,3V2970z"/>
	<path class="st0" d="M0,2480v-650h650h650v650v650H650H0V2480z"/>
	<path class="st0" d="M1432,2483l3-648l648-3l647-2v650v650h-650h-650L1432,2483z"/>
</g>
</svg>
